<svg width="1392" height="705" viewBox="0 0 1392 705" fill="none" xmlns="http://www.w3.org/2000/svg">
<path d="M498.14 34.0938L505.546 33.2188C506.38 39.0729 509.109 42 513.734 42C516.025 42 517.828 41.4062 519.14 40.2188C520.453 39.0104 521.109 37.5208 521.109 35.75C521.109 34.7083 520.88 33.8229 520.421 33.0938C519.963 32.3646 519.265 31.7708 518.328 31.3125C517.39 30.8333 515.119 30.0417 511.515 28.9375C508.286 27.9583 505.921 26.8958 504.421 25.75C502.921 24.6042 501.723 23.1042 500.828 21.25C499.953 19.375 499.515 17.3646 499.515 15.2188C499.515 12.7188 500.078 10.4688 501.203 8.46875C502.348 6.46875 503.921 4.95833 505.921 3.9375C507.921 2.91667 510.39 2.40625 513.328 2.40625C517.744 2.40625 521.192 3.60417 523.671 6C526.15 8.39583 527.463 11.8229 527.609 16.2812L520.015 16.6875C519.682 14.2292 518.963 12.5104 517.859 11.5312C516.755 10.5521 515.182 10.0625 513.14 10.0625C511.098 10.0625 509.525 10.4896 508.421 11.3438C507.317 12.1979 506.765 13.2604 506.765 14.5312C506.765 15.7812 507.265 16.8333 508.265 17.6875C509.265 18.5417 511.567 19.4792 515.171 20.5C518.984 21.6042 521.734 22.7708 523.421 24C525.13 25.2083 526.432 26.7812 527.328 28.7188C528.223 30.6354 528.671 32.9688 528.671 35.7188C528.671 39.6979 527.442 43.0417 524.984 45.75C522.546 48.4583 518.723 49.8125 513.515 49.8125C504.307 49.8125 499.182 44.5729 498.14 34.0938ZM532.268 49V3.1875H539.83V49H532.268ZM562.051 32.1562V24.4375H578.395V42.6875C576.749 44.625 574.416 46.2917 571.395 47.6875C568.374 49.0833 565.343 49.7812 562.301 49.7812C558.593 49.7812 555.322 48.875 552.489 47.0625C549.655 45.2292 547.405 42.5 545.739 38.875C544.093 35.2292 543.27 30.9479 543.27 26.0312C543.27 20.9896 544.103 16.6771 545.77 13.0938C547.458 9.51042 549.635 6.83333 552.301 5.0625C554.989 3.29167 558.197 2.40625 561.926 2.40625C566.405 2.40625 569.989 3.55208 572.676 5.84375C575.385 8.11458 577.124 11.4583 577.895 15.875L570.395 17.5938C569.833 15.2396 568.801 13.4375 567.301 12.1875C565.801 10.9375 564.01 10.3125 561.926 10.3125C558.697 10.3125 556.083 11.5729 554.083 14.0938C552.083 16.5938 551.083 20.4167 551.083 25.5625C551.083 31.0833 552.166 35.2812 554.333 38.1562C556.187 40.6354 558.697 41.875 561.864 41.875C563.343 41.875 564.874 41.5312 566.458 40.8438C568.062 40.1354 569.489 39.1771 570.739 37.9688V32.1562H562.051ZM582.96 49V3.1875H590.335L605.71 33.7812V3.1875H612.773V49H605.148L590.023 19.125V49H582.96ZM630.184 3.1875H637.746V28C637.746 31.8542 637.84 34.3646 638.028 35.5312C638.361 37.5521 639.153 39.1146 640.403 40.2188C641.673 41.3229 643.34 41.875 645.403 41.875C647.153 41.875 648.58 41.4896 649.684 40.7188C650.788 39.9271 651.538 38.8438 651.934 37.4688C652.35 36.0729 652.559 33.0938 652.559 28.5312V3.1875H660.153V27.25C660.153 33.3958 659.819 37.8438 659.153 40.5938C658.507 43.3229 657.028 45.5417 654.715 47.25C652.423 48.9375 649.392 49.7812 645.621 49.7812C641.705 49.7812 638.642 49.0833 636.434 47.6875C634.246 46.2708 632.653 44.2917 631.653 41.75C630.673 39.1875 630.184 34.4792 630.184 27.625V3.1875ZM665.561 49V3.1875H677.749C682.29 3.1875 685.259 3.40625 686.655 3.84375C688.884 4.55208 690.718 6.0625 692.155 8.375C693.613 10.6875 694.343 13.6667 694.343 17.3125C694.343 20.625 693.718 23.4062 692.468 25.6562C691.218 27.8854 689.655 29.4583 687.78 30.375C685.905 31.2708 682.676 31.7188 678.093 31.7188H673.124V49H665.561ZM673.124 10.9375V23.9375H677.311C680.124 23.9375 682.03 23.7396 683.03 23.3438C684.051 22.9479 684.884 22.2396 685.53 21.2188C686.176 20.1771 686.499 18.9062 686.499 17.4062C686.499 15.8854 686.165 14.6042 685.499 13.5625C684.832 12.5208 684.009 11.8229 683.03 11.4688C682.051 11.1146 679.978 10.9375 676.811 10.9375H673.124ZM717.598 49V10.9375H706.441V3.1875H736.285V10.9375H725.16V49H717.598ZM736.194 26.375C736.194 20.9167 736.996 16.4271 738.6 12.9062C740.225 9.36458 742.34 6.72917 744.944 5C747.548 3.27083 750.704 2.40625 754.413 2.40625C759.788 2.40625 764.163 4.45833 767.538 8.5625C770.933 12.6667 772.631 18.5104 772.631 26.0938C772.631 33.7604 770.84 39.75 767.256 44.0625C764.11 47.875 759.84 49.7812 754.444 49.7812C749.006 49.7812 744.715 47.8958 741.569 44.125C737.985 39.8125 736.194 33.8958 736.194 26.375ZM744.006 26.0625C744.006 31.3333 745.006 35.2917 747.006 37.9375C749.006 40.5625 751.485 41.875 754.444 41.875C757.423 41.875 759.892 40.5729 761.85 37.9688C763.808 35.3438 764.788 31.3229 764.788 25.9062C764.788 20.5938 763.829 16.6667 761.913 14.125C760.017 11.5833 757.527 10.3125 754.444 10.3125C751.36 10.3125 748.85 11.5938 746.913 14.1562C744.975 16.7188 744.006 20.6875 744.006 26.0625ZM786.574 26.375C786.574 20.9167 787.376 16.4271 788.98 12.9062C790.605 9.36458 792.72 6.72917 795.324 5C797.928 3.27083 801.084 2.40625 804.792 2.40625C810.167 2.40625 814.542 4.45833 817.917 8.5625C821.313 12.6667 823.011 18.5104 823.011 26.0938C823.011 33.7604 821.22 39.75 817.636 44.0625C814.49 47.875 810.22 49.7812 804.824 49.7812C799.386 49.7812 795.095 47.8958 791.949 44.125C788.365 39.8125 786.574 33.8958 786.574 26.375ZM794.386 26.0625C794.386 31.3333 795.386 35.2917 797.386 37.9375C799.386 40.5625 801.865 41.875 804.824 41.875C807.803 41.875 810.272 40.5729 812.23 37.9688C814.188 35.3438 815.167 31.3229 815.167 25.9062C815.167 20.5938 814.209 16.6667 812.292 14.125C810.397 11.5833 807.907 10.3125 804.824 10.3125C801.74 10.3125 799.23 11.5938 797.292 14.1562C795.355 16.7188 794.386 20.6875 794.386 26.0625ZM826.326 3.1875H833.889V28C833.889 31.8542 833.983 34.3646 834.17 35.5312C834.503 37.5521 835.295 39.1146 836.545 40.2188C837.816 41.3229 839.483 41.875 841.545 41.875C843.295 41.875 844.722 41.4896 845.826 40.7188C846.93 39.9271 847.68 38.8438 848.076 37.4688C848.493 36.0729 848.701 33.0938 848.701 28.5312V3.1875H856.295V27.25C856.295 33.3958 855.962 37.8438 855.295 40.5938C854.649 43.3229 853.17 45.5417 850.858 47.25C848.566 48.9375 845.535 49.7812 841.764 49.7812C837.847 49.7812 834.785 49.0833 832.576 47.6875C830.389 46.2708 828.795 44.2917 827.795 41.75C826.816 39.1875 826.326 34.4792 826.326 27.625V3.1875ZM861.735 49V3.1875H877.704C881.787 3.1875 884.704 3.60417 886.454 4.4375C888.204 5.25 889.641 6.67708 890.766 8.71875C891.891 10.7396 892.454 13.1667 892.454 16C892.454 19.5833 891.589 22.4688 889.86 24.6562C888.152 26.8438 885.714 28.2188 882.547 28.7812C884.172 29.9479 885.516 31.2292 886.579 32.625C887.641 34 889.089 36.4792 890.922 40.0625L895.485 49H886.454L880.954 39.0312C878.975 35.4271 877.631 33.1771 876.922 32.2812C876.214 31.3646 875.464 30.7396 874.672 30.4062C873.881 30.0521 872.61 29.875 870.86 29.875H869.297V49H861.735ZM869.297 22.5625H874.922C878.36 22.5625 880.547 22.4167 881.485 22.125C882.422 21.8125 883.183 21.1979 883.766 20.2812C884.35 19.3646 884.641 18.1458 884.641 16.625C884.641 15.1667 884.35 14 883.766 13.125C883.183 12.2292 882.391 11.6146 881.391 11.2812C880.683 11.0521 878.631 10.9375 875.235 10.9375H869.297V22.5625Z" fill="#F2695C"/>
<path d="M20.5748 79.064H75.6148L104.855 202.904V79.064H153.359V335H103.479L69.7668 201.528V335H20.5748V79.064ZM166.036 79.064H272.332V132.04H222.108V175.728H262.356V230.08H222.108V280.992H274.396V335H166.036V79.064ZM360.67 79.064H413.99L427.75 236.272L439.79 79.064H494.142L461.462 335H397.134L386.126 199.464L375.118 335H309.414L277.078 79.064H335.214L346.91 237.648L360.67 79.064ZM557.11 75.624H569.838C611.462 75.624 626.598 95.92 626.598 127.912V158.528H571.902V131.008C571.902 124.128 570.182 120 563.302 120C556.766 120 554.702 124.128 554.702 131.352V137.888C554.702 148.552 557.11 154.744 567.086 164.032L596.326 190.176C622.126 213.912 630.038 231.112 630.038 258.976V271.704C630.038 311.608 610.43 338.44 566.742 338.44H554.358C514.798 338.44 494.846 319.52 494.846 282.024V241.088H550.574V276.52C550.574 285.12 552.982 289.936 560.206 289.936C567.086 289.936 569.494 284.776 569.494 274.8V267.92C569.494 253.472 568.462 246.936 556.078 235.584L526.494 209.096C504.822 189.832 497.254 169.192 497.254 143.048V131.008C497.254 96.952 517.206 75.624 557.11 75.624ZM639.372 79.064H696.132V280.648H742.572V335H639.372V79.064ZM751.911 79.064H858.207V132.04H807.983V175.728H848.231V230.08H807.983V280.992H860.271V335H751.911V79.064ZM865.721 79.064H986.121V132.04H954.129V335H897.713V132.04H865.721V79.064ZM993.041 79.064H1113.44V132.04H1081.45V335H1025.03V132.04H993.041V79.064ZM1122.79 79.064H1229.08V132.04H1178.86V175.728H1219.11V230.08H1178.86V280.992H1231.15V335H1122.79V79.064ZM1297.12 123.096V181.92H1304.35C1311.57 181.92 1314.67 178.824 1314.67 169.536V135.136C1314.67 125.848 1313.29 123.096 1305.38 123.096H1297.12ZM1297.12 230.08V335H1240.36V79.064H1329.46C1354.57 79.064 1371.77 93.856 1371.77 124.128V157.84C1371.77 181.576 1359.39 192.24 1349.41 196.712C1359.04 200.496 1371.77 211.16 1371.77 230.08V314.704C1371.77 324.336 1373.49 329.496 1375.21 333.28V335H1319.14C1316.73 331.904 1314.67 326.056 1314.67 316.768V242.464C1314.67 233.864 1312.95 230.08 1305.04 230.08H1297.12Z" fill="#F2695C"/>
<path d="M492.069 496H471.444L463.241 469.984H425.741L418.006 496H397.85L434.413 381.469H454.491L492.069 496ZM457.147 450.688L444.256 408.188L431.522 450.688H457.147ZM495.903 496V381.469H514.341L552.778 457.953V381.469H570.434V496H551.372L513.559 421.312V496H495.903ZM583.878 381.469H618.487C627.237 381.469 633.826 382.458 638.253 384.438C642.732 386.365 646.847 389.646 650.597 394.281C654.347 398.917 657.29 404.932 659.425 412.328C661.56 419.724 662.628 428.917 662.628 439.906C662.628 449.802 661.508 458.422 659.269 465.766C657.029 473.057 654.191 478.839 650.753 483.109C647.316 487.38 643.149 490.609 638.253 492.797C633.409 494.932 627.159 496 619.503 496H583.878V381.469ZM602.784 400.844V476.703H617.003C623.097 476.703 627.498 476.13 630.206 474.984C632.967 473.839 635.206 472.12 636.925 469.828C638.696 467.484 640.154 463.812 641.3 458.812C642.446 453.812 643.019 447.224 643.019 439.047C643.019 430.557 642.42 423.865 641.222 418.969C640.076 414.073 638.253 410.219 635.753 407.406C633.305 404.594 630.31 402.745 626.769 401.859C624.112 401.182 618.982 400.844 611.378 400.844H602.784ZM697.641 458.734L716.156 456.547C718.24 471.182 725.062 478.5 736.625 478.5C742.354 478.5 746.859 477.016 750.141 474.047C753.422 471.026 755.062 467.302 755.062 462.875C755.062 460.271 754.49 458.057 753.344 456.234C752.198 454.411 750.453 452.927 748.109 451.781C745.766 450.583 740.089 448.604 731.078 445.844C723.005 443.396 717.094 440.74 713.344 437.875C709.594 435.01 706.599 431.26 704.359 426.625C702.172 421.938 701.078 416.911 701.078 411.547C701.078 405.297 702.484 399.672 705.297 394.672C708.161 389.672 712.094 385.896 717.094 383.344C722.094 380.792 728.266 379.516 735.609 379.516C746.651 379.516 755.271 382.51 761.469 388.5C767.667 394.49 770.948 403.057 771.312 414.203L752.328 415.219C751.495 409.073 749.698 404.776 746.938 402.328C744.177 399.88 740.245 398.656 735.141 398.656C730.036 398.656 726.104 399.724 723.344 401.859C720.583 403.995 719.203 406.651 719.203 409.828C719.203 412.953 720.453 415.583 722.953 417.719C725.453 419.854 731.208 422.198 740.219 424.75C749.75 427.51 756.625 430.427 760.844 433.5C765.115 436.521 768.37 440.453 770.609 445.297C772.849 450.089 773.969 455.922 773.969 462.797C773.969 472.745 770.896 481.104 764.75 487.875C758.656 494.646 749.099 498.031 736.078 498.031C713.057 498.031 700.245 484.932 697.641 458.734ZM804.678 496V400.844H776.787V381.469H851.397V400.844H823.584V496H804.678ZM932.263 496H911.638L903.434 469.984H865.934L858.2 496H838.044L874.606 381.469H894.684L932.263 496ZM897.341 450.688L884.45 408.188L871.716 450.688H897.341ZM948.519 496V447.797L914.144 381.469H936.331L958.441 426.781L980.159 381.469H1001.96L967.425 447.953V496H948.519ZM375.897 581.891L394.256 589C391.392 601.812 386.626 611.188 379.959 617.125C373.293 623.01 365.09 625.953 355.35 625.953C343.11 625.953 333.189 621.24 325.584 611.812C316.834 600.927 312.459 586.24 312.459 567.75C312.459 548.219 316.86 532.932 325.663 521.891C333.319 512.307 343.605 507.516 356.522 507.516C367.043 507.516 375.845 511.109 382.928 518.297C387.98 523.401 391.678 530.979 394.022 541.031L375.272 546.5C374.074 540.302 371.678 535.562 368.084 532.281C364.543 528.948 360.35 527.281 355.506 527.281C348.579 527.281 342.928 530.302 338.553 536.344C334.178 542.385 331.991 552.359 331.991 566.266C331.991 580.693 334.126 590.953 338.397 597.047C342.668 603.141 348.215 606.188 355.038 606.188C360.038 606.188 364.36 604.26 368.006 600.406C371.652 596.5 374.282 590.328 375.897 581.891ZM400.278 567.438C400.278 553.792 402.283 542.568 406.294 533.766C410.356 524.911 415.643 518.323 422.153 514C428.664 509.677 436.554 507.516 445.825 507.516C459.263 507.516 470.2 512.646 478.638 522.906C487.127 533.167 491.372 547.776 491.372 566.734C491.372 585.901 486.893 600.875 477.934 611.656C470.07 621.188 459.393 625.953 445.903 625.953C432.309 625.953 421.58 621.24 413.716 611.812C404.757 601.031 400.278 586.24 400.278 567.438ZM419.809 566.656C419.809 579.833 422.309 589.729 427.309 596.344C432.309 602.906 438.507 606.188 445.903 606.188C453.351 606.188 459.523 602.932 464.419 596.422C469.315 589.859 471.763 579.807 471.763 566.266C471.763 552.984 469.367 543.167 464.575 536.812C459.835 530.458 453.611 527.281 445.903 527.281C438.195 527.281 431.919 530.484 427.075 536.891C422.231 543.297 419.809 553.219 419.809 566.656ZM500.05 624V509.469H518.487L556.925 585.953V509.469H574.581V624H555.519L517.706 549.312V624H500.05ZM588.338 624V509.469H606.775L645.213 585.953V509.469H662.869V624H643.806L605.994 549.312V624H588.338ZM676.469 624V509.469H746.156V528.844H695.375V554.234H742.562V573.531H695.375V604.703H747.875V624H676.469ZM817.647 581.891L836.006 589C833.142 601.812 828.376 611.188 821.709 617.125C815.043 623.01 806.84 625.953 797.1 625.953C784.86 625.953 774.939 621.24 767.334 611.812C758.584 600.927 754.209 586.24 754.209 567.75C754.209 548.219 758.61 532.932 767.412 521.891C775.069 512.307 785.355 507.516 798.272 507.516C808.793 507.516 817.595 511.109 824.678 518.297C829.73 523.401 833.428 530.979 835.772 541.031L817.022 546.5C815.824 540.302 813.428 535.562 809.834 532.281C806.293 528.948 802.1 527.281 797.256 527.281C790.329 527.281 784.678 530.302 780.303 536.344C775.928 542.385 773.741 552.359 773.741 566.266C773.741 580.693 775.876 590.953 780.147 597.047C784.418 603.141 789.965 606.188 796.787 606.188C801.787 606.188 806.11 604.26 809.756 600.406C813.402 596.5 816.032 590.328 817.647 581.891ZM866.95 624V528.844H839.059V509.469H913.669V528.844H885.856V624H866.95ZM919.613 624V509.469H989.3V528.844H938.519V554.234H985.706V573.531H938.519V604.703H991.019V624H919.613ZM1000.56 509.469H1035.17C1043.92 509.469 1050.5 510.458 1054.93 512.438C1059.41 514.365 1063.53 517.646 1067.28 522.281C1071.03 526.917 1073.97 532.932 1076.1 540.328C1078.24 547.724 1079.31 556.917 1079.31 567.906C1079.31 577.802 1078.19 586.422 1075.95 593.766C1073.71 601.057 1070.87 606.839 1067.43 611.109C1063.99 615.38 1059.83 618.609 1054.93 620.797C1050.09 622.932 1043.84 624 1036.18 624H1000.56V509.469ZM1019.46 528.844V604.703H1033.68C1039.78 604.703 1044.18 604.13 1046.88 602.984C1049.64 601.839 1051.88 600.12 1053.6 597.828C1055.37 595.484 1056.83 591.812 1057.98 586.812C1059.12 581.812 1059.7 575.224 1059.7 567.047C1059.7 558.557 1059.1 551.865 1057.9 546.969C1056.75 542.073 1054.93 538.219 1052.43 535.406C1049.98 532.594 1046.99 530.745 1043.45 529.859C1040.79 529.182 1035.66 528.844 1028.06 528.844H1019.46Z" fill="#F2695C"/>
<path d="M601.992 703L593.024 657.188H600.805L606.43 688.656L613.305 657.188H622.336L628.93 689.188L634.711 657.188H642.336L633.211 703H625.149L617.649 668.75L610.211 703H601.992ZM643.464 703V657.188H651.026V703H643.464ZM664.216 703V664.938H653.06V657.188H682.904V664.938H671.779V703H664.216ZM685.281 703V657.188H692.844V675.219H707.719V657.188H715.312V703H707.719V682.969H692.844V703H685.281ZM732.568 657.188H740.13V682C740.13 685.854 740.224 688.365 740.411 689.531C740.745 691.552 741.536 693.115 742.786 694.219C744.057 695.323 745.724 695.875 747.786 695.875C749.536 695.875 750.963 695.49 752.068 694.719C753.172 693.927 753.922 692.844 754.318 691.469C754.734 690.073 754.943 687.094 754.943 682.531V657.188H762.536V681.25C762.536 687.396 762.203 691.844 761.536 694.594C760.89 697.323 759.411 699.542 757.099 701.25C754.807 702.938 751.776 703.781 748.005 703.781C744.088 703.781 741.026 703.083 738.818 701.688C736.63 700.271 735.036 698.292 734.036 695.75C733.057 693.188 732.568 688.479 732.568 681.625V657.188ZM766.039 688.094L773.445 687.219C774.278 693.073 777.008 696 781.633 696C783.924 696 785.726 695.406 787.039 694.219C788.351 693.01 789.008 691.521 789.008 689.75C789.008 688.708 788.778 687.823 788.32 687.094C787.862 686.365 787.164 685.771 786.226 685.312C785.289 684.833 783.018 684.042 779.414 682.938C776.185 681.958 773.82 680.896 772.32 679.75C770.82 678.604 769.622 677.104 768.726 675.25C767.851 673.375 767.414 671.365 767.414 669.219C767.414 666.719 767.976 664.469 769.101 662.469C770.247 660.469 771.82 658.958 773.82 657.938C775.82 656.917 778.289 656.406 781.226 656.406C785.643 656.406 789.091 657.604 791.57 660C794.049 662.396 795.362 665.823 795.508 670.281L787.914 670.688C787.58 668.229 786.862 666.51 785.758 665.531C784.653 664.552 783.08 664.062 781.039 664.062C778.997 664.062 777.424 664.49 776.32 665.344C775.216 666.198 774.664 667.26 774.664 668.531C774.664 669.781 775.164 670.833 776.164 671.688C777.164 672.542 779.466 673.479 783.07 674.5C786.883 675.604 789.633 676.771 791.32 678C793.028 679.208 794.33 680.781 795.226 682.719C796.122 684.635 796.57 686.969 796.57 689.719C796.57 693.698 795.341 697.042 792.883 699.75C790.445 702.458 786.622 703.812 781.414 703.812C772.205 703.812 767.08 698.573 766.039 688.094Z" fill="#F2695C"/>
</svg>
