<svg width="343" height="227" viewBox="0 0 343 227" fill="none" xmlns="http://www.w3.org/2000/svg">
<path d="M47.8375 20.6836L52.4664 20.1367C52.9872 23.7956 54.693 25.625 57.5836 25.625C59.0159 25.625 60.1422 25.2539 60.9625 24.5117C61.7828 23.7565 62.193 22.8255 62.193 21.7188C62.193 21.0677 62.0497 20.5143 61.7633 20.0586C61.4768 19.6029 61.0406 19.2318 60.4547 18.9453C59.8688 18.6458 58.4495 18.151 56.1969 17.4609C54.1786 16.849 52.7008 16.1849 51.7633 15.4688C50.8258 14.7526 50.0771 13.8151 49.5172 12.6562C48.9703 11.4844 48.6969 10.2279 48.6969 8.88672C48.6969 7.32422 49.0484 5.91797 49.7516 4.66797C50.4677 3.41797 51.4508 2.47396 52.7008 1.83594C53.9508 1.19792 55.4938 0.878906 57.3297 0.878906C60.0901 0.878906 62.2451 1.6276 63.7945 3.125C65.344 4.6224 66.1643 6.76432 66.2555 9.55078L61.5094 9.80469C61.301 8.26823 60.8518 7.19401 60.1617 6.58203C59.4716 5.97005 58.4885 5.66406 57.2125 5.66406C55.9365 5.66406 54.9534 5.93099 54.2633 6.46484C53.5732 6.9987 53.2281 7.66276 53.2281 8.45703C53.2281 9.23828 53.5406 9.89583 54.1656 10.4297C54.7906 10.9635 56.2294 11.5495 58.482 12.1875C60.8648 12.8776 62.5836 13.6068 63.6383 14.375C64.706 15.1302 65.5198 16.1133 66.0797 17.3242C66.6396 18.5221 66.9195 19.9805 66.9195 21.6992C66.9195 24.1862 66.1513 26.276 64.6148 27.9688C63.0914 29.6615 60.7021 30.5078 57.4469 30.5078C51.6917 30.5078 48.4885 27.2331 47.8375 20.6836ZM69.1672 30V1.36719H73.8938V30H69.1672ZM87.782 19.4727V14.6484H97.9969V26.0547C96.9682 27.2656 95.5099 28.3073 93.6219 29.1797C91.7339 30.0521 89.8393 30.4883 87.9383 30.4883C85.6206 30.4883 83.5763 29.9219 81.8055 28.7891C80.0346 27.6432 78.6284 25.9375 77.5867 23.6719C76.5581 21.3932 76.0437 18.7174 76.0437 15.6445C76.0437 12.4935 76.5646 9.79818 77.6062 7.55859C78.6609 5.31901 80.0216 3.64583 81.6883 2.53906C83.368 1.43229 85.3732 0.878906 87.7039 0.878906C90.5034 0.878906 92.743 1.59505 94.4227 3.02734C96.1154 4.44661 97.2026 6.53646 97.6844 9.29688L92.9969 10.3711C92.6453 8.89974 92.0008 7.77344 91.0633 6.99219C90.1258 6.21094 89.006 5.82031 87.7039 5.82031C85.6857 5.82031 84.0516 6.60807 82.8016 8.18359C81.5516 9.74609 80.9266 12.1354 80.9266 15.3516C80.9266 18.8021 81.6036 21.4258 82.9578 23.2227C84.1167 24.7721 85.6857 25.5469 87.6648 25.5469C88.5893 25.5469 89.5464 25.332 90.5359 24.9023C91.5385 24.4596 92.4305 23.8607 93.2117 23.1055V19.4727H87.782ZM100.85 30V1.36719H105.459L115.069 20.4883V1.36719H119.483V30H114.717L105.264 11.3281V30H100.85ZM130.365 1.36719H135.091V16.875C135.091 19.2839 135.15 20.8529 135.267 21.582C135.476 22.8451 135.97 23.8216 136.752 24.5117C137.546 25.2018 138.587 25.5469 139.877 25.5469C140.97 25.5469 141.862 25.306 142.552 24.8242C143.242 24.3294 143.711 23.6523 143.959 22.793C144.219 21.9206 144.349 20.0586 144.349 17.207V1.36719H149.095V16.4062C149.095 20.2474 148.887 23.0273 148.47 24.7461C148.067 26.4518 147.142 27.8385 145.697 28.9062C144.265 29.9609 142.37 30.4883 140.013 30.4883C137.565 30.4883 135.651 30.0521 134.271 29.1797C132.904 28.2943 131.908 27.0573 131.283 25.4688C130.671 23.8672 130.365 20.9245 130.365 16.6406V1.36719ZM152.476 30V1.36719H160.093C162.932 1.36719 164.787 1.50391 165.659 1.77734C167.053 2.22005 168.198 3.16406 169.097 4.60938C170.008 6.05469 170.464 7.91667 170.464 10.1953C170.464 12.2656 170.073 14.0039 169.292 15.4102C168.511 16.8034 167.534 17.7865 166.363 18.3594C165.191 18.9193 163.172 19.1992 160.308 19.1992H157.202V30H152.476ZM157.202 6.21094V14.3359H159.82C161.577 14.3359 162.769 14.2122 163.394 13.9648C164.032 13.7174 164.553 13.2747 164.956 12.6367C165.36 11.9857 165.562 11.1914 165.562 10.2539C165.562 9.30339 165.353 8.5026 164.937 7.85156C164.52 7.20052 164.006 6.76432 163.394 6.54297C162.782 6.32161 161.486 6.21094 159.507 6.21094H157.202ZM184.998 30V6.21094H178.026V1.36719H196.678V6.21094H189.725V30H184.998ZM196.621 15.8594C196.621 12.4479 197.122 9.64193 198.125 7.44141C199.141 5.22786 200.462 3.58073 202.09 2.5C203.717 1.41927 205.69 0.878906 208.008 0.878906C211.367 0.878906 214.102 2.16146 216.211 4.72656C218.333 7.29167 219.395 10.944 219.395 15.6836C219.395 20.4753 218.275 24.2188 216.035 26.9141C214.069 29.2969 211.4 30.4883 208.027 30.4883C204.629 30.4883 201.947 29.3099 199.98 26.9531C197.741 24.2578 196.621 20.5599 196.621 15.8594ZM201.504 15.6641C201.504 18.9583 202.129 21.4323 203.379 23.0859C204.629 24.7266 206.178 25.5469 208.027 25.5469C209.889 25.5469 211.432 24.7331 212.656 23.1055C213.88 21.4648 214.492 18.9518 214.492 15.5664C214.492 12.2461 213.893 9.79167 212.695 8.20312C211.51 6.61458 209.954 5.82031 208.027 5.82031C206.1 5.82031 204.531 6.62109 203.32 8.22266C202.109 9.82422 201.504 12.3047 201.504 15.6641ZM228.109 15.8594C228.109 12.4479 228.61 9.64193 229.612 7.44141C230.628 5.22786 231.95 3.58073 233.577 2.5C235.205 1.41927 237.178 0.878906 239.495 0.878906C242.855 0.878906 245.589 2.16146 247.698 4.72656C249.821 7.29167 250.882 10.944 250.882 15.6836C250.882 20.4753 249.762 24.2188 247.523 26.9141C245.556 29.2969 242.887 30.4883 239.515 30.4883C236.116 30.4883 233.434 29.3099 231.468 26.9531C229.228 24.2578 228.109 20.5599 228.109 15.8594ZM232.991 15.6641C232.991 18.9583 233.616 21.4323 234.866 23.0859C236.116 24.7266 237.666 25.5469 239.515 25.5469C241.377 25.5469 242.92 24.7331 244.144 23.1055C245.368 21.4648 245.98 18.9518 245.98 15.5664C245.98 12.2461 245.381 9.79167 244.183 8.20312C242.998 6.61458 241.442 5.82031 239.515 5.82031C237.588 5.82031 236.019 6.62109 234.808 8.22266C233.597 9.82422 232.991 12.3047 232.991 15.6641ZM252.954 1.36719H257.68V16.875C257.68 19.2839 257.739 20.8529 257.856 21.582C258.065 22.8451 258.559 23.8216 259.341 24.5117C260.135 25.2018 261.177 25.5469 262.466 25.5469C263.559 25.5469 264.451 25.306 265.141 24.8242C265.832 24.3294 266.3 23.6523 266.548 22.793C266.808 21.9206 266.938 20.0586 266.938 17.207V1.36719H271.684V16.4062C271.684 20.2474 271.476 23.0273 271.059 24.7461C270.656 26.4518 269.731 27.8385 268.286 28.9062C266.854 29.9609 264.959 30.4883 262.602 30.4883C260.154 30.4883 258.24 30.0521 256.86 29.1797C255.493 28.2943 254.497 27.0573 253.872 25.4688C253.26 23.8672 252.954 20.9245 252.954 16.6406V1.36719ZM275.084 30V1.36719H285.065C287.617 1.36719 289.44 1.6276 290.534 2.14844C291.627 2.65625 292.526 3.54818 293.229 4.82422C293.932 6.08724 294.284 7.60417 294.284 9.375C294.284 11.6146 293.743 13.418 292.663 14.7852C291.595 16.1523 290.071 17.0117 288.092 17.3633C289.108 18.0924 289.948 18.8932 290.612 19.7656C291.276 20.625 292.181 22.1745 293.327 24.4141L296.178 30H290.534L287.096 23.7695C285.859 21.5169 285.019 20.1107 284.577 19.5508C284.134 18.9779 283.665 18.5872 283.17 18.3789C282.676 18.1576 281.881 18.0469 280.788 18.0469H279.811V30H275.084ZM279.811 13.4766H283.327C285.475 13.4766 286.842 13.3854 287.428 13.2031C288.014 13.0078 288.489 12.6237 288.854 12.0508C289.218 11.4779 289.401 10.7161 289.401 9.76562C289.401 8.85417 289.218 8.125 288.854 7.57812C288.489 7.01823 287.995 6.63411 287.37 6.42578C286.927 6.28255 285.644 6.21094 283.522 6.21094H279.811V13.4766Z" fill="#F2695C"/>
<path d="M14.4244 49.48H27.2244L34.0244 78.28V49.48H45.3044V109H33.7044L25.8644 77.96V109H14.4244V49.48ZM48.2525 49.48H72.9725V61.8H61.2925V71.96H70.6525V84.6H61.2925V96.44H73.4525V109H48.2525V49.48ZM93.5163 49.48H105.916L109.116 86.04L111.916 49.48H124.556L116.956 109H101.996L99.4363 77.48L96.8763 109H81.5963L74.0762 49.48H87.5963L90.3163 86.36L93.5163 49.48ZM139.2 48.68H142.16C151.84 48.68 155.36 53.4 155.36 60.84V67.96H142.64V61.56C142.64 59.96 142.24 59 140.64 59C139.12 59 138.64 59.96 138.64 61.64V63.16C138.64 65.64 139.2 67.08 141.52 69.24L148.32 75.32C154.32 80.84 156.16 84.84 156.16 91.32V94.28C156.16 103.56 151.6 109.8 141.44 109.8H138.56C129.36 109.8 124.72 105.4 124.72 96.68V87.16H137.68V95.4C137.68 97.4 138.24 98.52 139.92 98.52C141.52 98.52 142.08 97.32 142.08 95V93.4C142.08 90.04 141.84 88.52 138.96 85.88L132.08 79.72C127.04 75.24 125.28 70.44 125.28 64.36V61.56C125.28 53.64 129.92 48.68 139.2 48.68ZM158.331 49.48H171.531V96.36H182.331V109H158.331V49.48ZM184.503 49.48H209.223V61.8H197.543V71.96H206.903V84.6H197.543V96.44H209.703V109H184.503V49.48ZM210.97 49.48H238.97V61.8H231.53V109H218.41V61.8H210.97V49.48ZM240.579 49.48H268.579V61.8H261.139V109H248.019V61.8H240.579V49.48ZM270.753 49.48H295.473V61.8H283.793V71.96H293.153V84.6H283.793V96.44H295.953V109H270.753V49.48ZM311.296 59.72V73.4H312.976C314.656 73.4 315.376 72.68 315.376 70.52V62.52C315.376 60.36 315.056 59.72 313.216 59.72H311.296ZM311.296 84.6V109H298.096V49.48H318.816C324.656 49.48 328.656 52.92 328.656 59.96V67.8C328.656 73.32 325.776 75.8 323.456 76.84C325.696 77.72 328.656 80.2 328.656 84.6V104.28C328.656 106.52 329.056 107.72 329.456 108.6V109H316.416C315.856 108.28 315.376 106.92 315.376 104.76V87.48C315.376 85.48 314.976 84.6 313.136 84.6H311.296Z" fill="#F2695C"/>
<path d="M120.517 158H115.361L113.31 151.496H103.935L102.002 158H96.9625L106.103 129.367H111.123L120.517 158ZM111.787 146.672L108.564 136.047L105.38 146.672H111.787ZM121.476 158V129.367H126.085L135.695 148.488V129.367H140.109V158H135.343L125.89 139.328V158H121.476ZM143.47 129.367H152.122C154.309 129.367 155.957 129.615 157.063 130.109C158.183 130.591 159.212 131.411 160.149 132.57C161.087 133.729 161.822 135.233 162.356 137.082C162.89 138.931 163.157 141.229 163.157 143.977C163.157 146.451 162.877 148.605 162.317 150.441C161.757 152.264 161.048 153.71 160.188 154.777C159.329 155.845 158.287 156.652 157.063 157.199C155.852 157.733 154.29 158 152.376 158H143.47V129.367ZM148.196 134.211V153.176H151.751C153.274 153.176 154.374 153.033 155.052 152.746C155.742 152.46 156.302 152.03 156.731 151.457C157.174 150.871 157.539 149.953 157.825 148.703C158.111 147.453 158.255 145.806 158.255 143.762C158.255 141.639 158.105 139.966 157.805 138.742C157.519 137.518 157.063 136.555 156.438 135.852C155.826 135.148 155.078 134.686 154.192 134.465C153.528 134.296 152.246 134.211 150.345 134.211H148.196ZM171.91 148.684L176.539 148.137C177.06 151.796 178.766 153.625 181.656 153.625C183.089 153.625 184.215 153.254 185.035 152.512C185.855 151.757 186.266 150.826 186.266 149.719C186.266 149.068 186.122 148.514 185.836 148.059C185.549 147.603 185.113 147.232 184.527 146.945C183.941 146.646 182.522 146.151 180.27 145.461C178.251 144.849 176.773 144.185 175.836 143.469C174.898 142.753 174.15 141.815 173.59 140.656C173.043 139.484 172.77 138.228 172.77 136.887C172.77 135.324 173.121 133.918 173.824 132.668C174.54 131.418 175.523 130.474 176.773 129.836C178.023 129.198 179.566 128.879 181.402 128.879C184.163 128.879 186.318 129.628 187.867 131.125C189.417 132.622 190.237 134.764 190.328 137.551L185.582 137.805C185.374 136.268 184.924 135.194 184.234 134.582C183.544 133.97 182.561 133.664 181.285 133.664C180.009 133.664 179.026 133.931 178.336 134.465C177.646 134.999 177.301 135.663 177.301 136.457C177.301 137.238 177.613 137.896 178.238 138.43C178.863 138.964 180.302 139.549 182.555 140.188C184.938 140.878 186.656 141.607 187.711 142.375C188.779 143.13 189.592 144.113 190.152 145.324C190.712 146.522 190.992 147.98 190.992 149.699C190.992 152.186 190.224 154.276 188.688 155.969C187.164 157.661 184.775 158.508 181.52 158.508C175.764 158.508 172.561 155.233 171.91 148.684ZM198.67 158V134.211H191.697V129.367H210.349V134.211H203.396V158H198.67ZM230.566 158H225.409L223.359 151.496H213.984L212.05 158H207.011L216.152 129.367H221.171L230.566 158ZM221.835 146.672L218.613 136.047L215.429 146.672H221.835ZM234.63 158V145.949L226.036 129.367H231.583L237.11 140.695L242.54 129.367H247.989L239.356 145.988V158H234.63ZM91.4742 179.473L96.0641 181.25C95.3479 184.453 94.1565 186.797 92.4898 188.281C90.8232 189.753 88.7724 190.488 86.3375 190.488C83.2776 190.488 80.7971 189.31 78.8961 186.953C76.7086 184.232 75.6148 180.56 75.6148 175.938C75.6148 171.055 76.7151 167.233 78.9156 164.473C80.8297 162.077 83.4013 160.879 86.6305 160.879C89.2607 160.879 91.4612 161.777 93.232 163.574C94.4951 164.85 95.4195 166.745 96.0055 169.258L91.318 170.625C91.0185 169.076 90.4195 167.891 89.5211 167.07C88.6357 166.237 87.5875 165.82 86.3766 165.82C84.6448 165.82 83.232 166.576 82.1383 168.086C81.0445 169.596 80.4977 172.09 80.4977 175.566C80.4977 179.173 81.0315 181.738 82.0992 183.262C83.1669 184.785 84.5536 185.547 86.2594 185.547C87.5094 185.547 88.5901 185.065 89.5016 184.102C90.413 183.125 91.0706 181.582 91.4742 179.473ZM97.5695 175.859C97.5695 172.448 98.0708 169.642 99.0734 167.441C100.089 165.228 101.411 163.581 103.038 162.5C104.666 161.419 106.639 160.879 108.956 160.879C112.316 160.879 115.05 162.161 117.159 164.727C119.282 167.292 120.343 170.944 120.343 175.684C120.343 180.475 119.223 184.219 116.984 186.914C115.017 189.297 112.348 190.488 108.976 190.488C105.577 190.488 102.895 189.31 100.929 186.953C98.6893 184.258 97.5695 180.56 97.5695 175.859ZM102.452 175.664C102.452 178.958 103.077 181.432 104.327 183.086C105.577 184.727 107.127 185.547 108.976 185.547C110.838 185.547 112.381 184.733 113.605 183.105C114.829 181.465 115.441 178.952 115.441 175.566C115.441 172.246 114.842 169.792 113.644 168.203C112.459 166.615 110.903 165.82 108.976 165.82C107.049 165.82 105.48 166.621 104.269 168.223C103.058 169.824 102.452 172.305 102.452 175.664ZM122.512 190V161.367H127.122L136.731 180.488V161.367H141.145V190H136.38L126.927 171.328V190H122.512ZM144.584 190V161.367H149.194L158.803 180.488V161.367H163.217V190H158.452L148.998 171.328V190H144.584ZM166.617 190V161.367H184.039V166.211H171.344V172.559H183.141V177.383H171.344V185.176H184.469V190H166.617ZM201.912 179.473L206.502 181.25C205.785 184.453 204.594 186.797 202.927 188.281C201.261 189.753 199.21 190.488 196.775 190.488C193.715 190.488 191.235 189.31 189.334 186.953C187.146 184.232 186.052 180.56 186.052 175.938C186.052 171.055 187.153 167.233 189.353 164.473C191.267 162.077 193.839 160.879 197.068 160.879C199.698 160.879 201.899 161.777 203.67 163.574C204.933 164.85 205.857 166.745 206.443 169.258L201.755 170.625C201.456 169.076 200.857 167.891 199.959 167.07C199.073 166.237 198.025 165.82 196.814 165.82C195.082 165.82 193.67 166.576 192.576 168.086C191.482 169.596 190.935 172.09 190.935 175.566C190.935 179.173 191.469 181.738 192.537 183.262C193.604 184.785 194.991 185.547 196.697 185.547C197.947 185.547 199.028 185.065 199.939 184.102C200.851 183.125 201.508 181.582 201.912 179.473ZM214.237 190V166.211H207.265V161.367H225.917V166.211H218.964V190H214.237ZM227.403 190V161.367H244.825V166.211H232.13V172.559H243.927V177.383H232.13V185.176H245.255V190H227.403ZM247.639 161.367H256.291C258.479 161.367 260.126 161.615 261.233 162.109C262.353 162.591 263.381 163.411 264.319 164.57C265.256 165.729 265.992 167.233 266.526 169.082C267.06 170.931 267.327 173.229 267.327 175.977C267.327 178.451 267.047 180.605 266.487 182.441C265.927 184.264 265.217 185.71 264.358 186.777C263.498 187.845 262.457 188.652 261.233 189.199C260.022 189.733 258.459 190 256.545 190H247.639V161.367ZM252.366 166.211V185.176H255.92C257.444 185.176 258.544 185.033 259.221 184.746C259.911 184.46 260.471 184.03 260.901 183.457C261.343 182.871 261.708 181.953 261.995 180.703C262.281 179.453 262.424 177.806 262.424 175.762C262.424 173.639 262.274 171.966 261.975 170.742C261.689 169.518 261.233 168.555 260.608 167.852C259.996 167.148 259.247 166.686 258.362 166.465C257.698 166.296 256.415 166.211 254.514 166.211H252.366Z" fill="#F2695C"/>
<path d="M136.247 226L132.884 208.82H135.802L137.911 220.621L140.489 208.82H143.876L146.349 220.82L148.517 208.82H151.376L147.954 226H144.931L142.118 213.156L139.329 226H136.247ZM151.799 226V208.82H154.635V226H151.799ZM159.581 226V211.727H155.398V208.82H166.589V211.727H162.417V226H159.581ZM167.48 226V208.82H170.316V215.582H175.895V208.82H178.742V226H175.895V218.488H170.316V226H167.48ZM185.213 208.82H188.049V218.125C188.049 219.57 188.084 220.512 188.154 220.949C188.279 221.707 188.576 222.293 189.045 222.707C189.521 223.121 190.146 223.328 190.92 223.328C191.576 223.328 192.111 223.184 192.525 222.895C192.939 222.598 193.221 222.191 193.369 221.676C193.525 221.152 193.603 220.035 193.603 218.324V208.82H196.451V217.844C196.451 220.148 196.326 221.816 196.076 222.848C195.834 223.871 195.279 224.703 194.412 225.344C193.553 225.977 192.416 226.293 191.002 226.293C189.533 226.293 188.385 226.031 187.557 225.508C186.736 224.977 186.139 224.234 185.764 223.281C185.396 222.32 185.213 220.555 185.213 217.984V208.82ZM197.765 220.41L200.542 220.082C200.854 222.277 201.878 223.375 203.612 223.375C204.472 223.375 205.147 223.152 205.64 222.707C206.132 222.254 206.378 221.695 206.378 221.031C206.378 220.641 206.292 220.309 206.12 220.035C205.948 219.762 205.686 219.539 205.335 219.367C204.983 219.188 204.132 218.891 202.78 218.477C201.569 218.109 200.682 217.711 200.12 217.281C199.557 216.852 199.108 216.289 198.772 215.594C198.444 214.891 198.28 214.137 198.28 213.332C198.28 212.395 198.491 211.551 198.913 210.801C199.343 210.051 199.932 209.484 200.682 209.102C201.432 208.719 202.358 208.527 203.46 208.527C205.116 208.527 206.409 208.977 207.339 209.875C208.268 210.773 208.761 212.059 208.815 213.73L205.968 213.883C205.843 212.961 205.573 212.316 205.159 211.949C204.745 211.582 204.155 211.398 203.39 211.398C202.624 211.398 202.034 211.559 201.62 211.879C201.206 212.199 200.999 212.598 200.999 213.074C200.999 213.543 201.186 213.938 201.561 214.258C201.936 214.578 202.8 214.93 204.151 215.312C205.581 215.727 206.612 216.164 207.245 216.625C207.886 217.078 208.374 217.668 208.71 218.395C209.046 219.113 209.214 219.988 209.214 221.02C209.214 222.512 208.753 223.766 207.831 224.781C206.917 225.797 205.483 226.305 203.53 226.305C200.077 226.305 198.155 224.34 197.765 220.41Z" fill="#F2695C"/>
</svg>
